{"title":"Trilogy of Lust 2 (1996) -  Mainstream Uncut Movie","uid":6479553,"size":320239193,"categoryP":"porn","categoryS":"movies","magnet":"?xt=urn:btih:8ed64e2f8db253ef73974a1c12e3ebc0f42c998a&amp;dn=Trilogy+of+Lust+2+%281996%29+-++Mainstream+Uncut+Movie+&amp;tr=udp%3A%2F%2Ftracker.openbittorrent.com%3A80&amp;tr=udp%3A%2F%2Fopen.demonii.com%3A1337&amp;tr=udp%3A%2F%2Ftracker.coppersurfer.tk%3A6969&amp;tr=udp%3A%2F%2Fexodus.desync.com%3A6969","seeders":0,"leechers":1,"uploader":"Robin5555","files":2,"time":1308449531,"description":"***************************** TPB IS BENEDICTION TO ME ****************************\n\n\nScreen Link :---\n\n &lt;a href=&quot;\nhttp://www.shotpix.com/images/75688814374153303688.jpg&quot; rel=&quot;nofollow&quot; target=&quot;_NEW&quot;&gt;\nhttp://www.shotpix.com/images/75688814374153303688.jpg&lt;/a&gt;\n\n\nGeneral Info :---\n\nFormat                           : Matroska\nFile size                        : 305 MiB\nDuration                         : 1h 28mn\nOverall bit rate                 : 484 Kbps\nMovie name                       : P\nEncoded date                     : UTC 2011-06-13 00:43:54\nWriting application              : mkvmerge v4.6.0 ('Still Crazy After All These Years') built on Mar 10 2011 02:50:32\nWriting library                  : libebml v1.2.0 + libmatroska v1.1.0\n\nVideo\nID                               : 1\nFormat                           : AVC\nFormat/Info                      : Advanced Video Codec\nFormat profile                   : &lt;a class=&quot;__cf_email__&quot; href=&quot;/cdn-cgi/l/email-protection&quot; data-cfemail=&quot;4f072628270f037b617f&quot;&gt;[email&amp;#160;protected]&lt;/a&gt;&lt;script cf-hash='f9e31' type=&quot;text/javascript&quot;&gt;\n/* &lt;![CDATA[ */!function(){try{var t=&quot;currentScript&quot;in document?document.currentScript:function(){for(var t=document.getElementsByTagName(&quot;script&quot;),e=t.length;e--;)if(t[e].getAttribute(&quot;cf-hash&quot;))return t[e]}();if(t&amp;&amp;t.previousSibling){var e,r,n,i,c=t.previousSibling,a=c.getAttribute(&quot;data-cfemail&quot;);if(a){for(e=&quot;&quot;,r=parseInt(a.substr(0,2),16),n=2;a.length-n;n+=2)i=parseInt(a.substr(n,2),16)^r,e+=String.fromCharCode(i);e=document.createTextNode(e),c.parentNode.replaceChild(e,c)}}}catch(u){}}();/* ]]&gt; */&lt;/script&gt;\nFormat settings, CABAC           : Yes\nFormat settings, ReFrames        : 3 frames\nFormat settings, GOP             : M=3, N=4\nCodec ID                         : V_MPEG4/ISO/AVC\nDuration                         : 1h 28mn\nBit rate mode                    : Variable\nBit rate                         : 369 Kbps\nMaximum bit rate                 : 25.0 Mbps\nWidth                            : 608 pixels\nHeight                           : 336 pixels\nDisplay aspect ratio             : 16:9\nFrame rate                       : 23.976 fps\nColor space                      : YUV\nChroma subsampling               : 4:2:0\nBit depth                        : 8 bits\nScan type                        : Progressive\nBits/(Pixel*Frame)               : 0.075\nStream size                      : 227 MiB (74%)\n\nAudio\nID                               : 2\nFormat                           : MPEG Audio\nFormat version                   : Version 1\nFormat profile                   : Layer 3\nMode                             : Joint stereo\nMode extension                   : MS Stereo\nCodec ID                         : A_MPEG/L3\nCodec ID/Hint                    : MP3\nDuration                         : 1h 28mn\nBit rate mode                    : Variable\nBit rate                         : 114 Kbps\nNominal bit rate                 : 128 Kbps\nChannel(s)                       : 2 channels\nSampling rate                    : 48.0 KHz\nCompression mode                 : Lossy\nStream size                      : 72.0 MiB (24%)\n\n\n\n\n***************************** TPB IS BENEDICTION TO ME ****************************\n\n\n\n\n","torrent":{"xt":"urn:btih:8ed64e2f8db253ef73974a1c12e3ebc0f42c998a","amp;dn":"Trilogy+of+Lust+2+%281996%29+-++Mainstream+Uncut+Movie+","amp;tr":["udp%3A%2F%2Ftracker.openbittorrent.com%3A80","udp%3A%2F%2Fopen.demonii.com%3A1337","udp%3A%2F%2Ftracker.coppersurfer.tk%3A6969","udp%3A%2F%2Fexodus.desync.com%3A6969"],"infoHash":"8ed64e2f8db253ef73974a1c12e3ebc0f42c998a","infoHashBuffer":{"type":"Buffer","data":[142,214,78,47,141,178,83,239,115,151,74,28,18,227,235,192,244,44,153,138]},"announce":[],"urlList":[]}}